# xmcd
#
# Track frame offsets: 
#        183
#        14118
#        41210
#        61980
#        82253
#        101498
#        121568
#        151363
#        168278
#        194198
#
# Disc length: 4442 seconds
#
# Revision: 0
# Processed by: cddbd v1.5.1PL0 Copyright (c) Steve Scherf et al.
# Submitted via: ExactAudioCopy v0.90b4
#
DISCID=8811580a
DTITLE=Stan Marshal$ Law - Blues and Yellow
DYEAR=1993
DGENRE=Blues
TTITLE0=Give You My Brand
TTITLE1=Reliable Sources
TTITLE2=Night Moves
TTITLE3=Golden Road
TTITLE4=Dancing Flame
TTITLE5=Hungry For The Blues
TTITLE6=Never Be The Man You Want
TTITLE7=Unholstered Gun
TTITLE8=Talking To You
TTITLE9=Blues and Yellow.
EXTD=
EXTT0=
EXTT1=
EXTT2=
EXTT3=
EXTT4=
EXTT5=
EXTT6=
EXTT7=
EXTT8=
EXTT9=
PLAYORDER=
